<svg width="11" height="12" viewBox="0 0 11 12" fill="none" xmlns="http://www.w3.org/2000/svg">
<path d="M9.8802 9.49091H9.54033V4.85455C9.54033 2.93045 8.06328 1.34045 6.14156 1.07591V0.545455C6.14156 0.244091 5.88807 0 5.5751 0C5.26213 0 5.00864 0.244091 5.00864 0.545455V1.07591C3.08692 1.34045 1.60988 2.93045 1.60988 4.85455V9.49091H1.27C1.01934 9.49091 0.816833 9.68591 0.816833 9.92727V10.3636C0.816833 10.4236 0.867815 10.4727 0.930126 10.4727H3.98901C3.98901 11.3155 4.69992 12 5.5751 12C6.45028 12 7.16119 11.3155 7.16119 10.4727H10.2201C10.2824 10.4727 10.3334 10.4236 10.3334 10.3636V9.92727C10.3334 9.68591 10.1309 9.49091 9.8802 9.49091ZM5.5751 11.1273C5.19982 11.1273 4.89535 10.8341 4.89535 10.4727H6.25486C6.25486 10.8341 5.95038 11.1273 5.5751 11.1273ZM8.5207 9.49091H2.62951V4.85455C2.62951 4.09636 2.9354 3.38455 3.49194 2.84864C4.04849 2.31273 4.78772 2.01818 5.5751 2.01818C6.36248 2.01818 7.10171 2.31273 7.65826 2.84864C8.21481 3.38455 8.5207 4.09636 8.5207 4.85455V9.49091Z" fill="#EFF7FF"/>
</svg>
