<svg width="46" height="46" viewBox="0 0 46 46" fill="none" xmlns="http://www.w3.org/2000/svg">
<path d="M39.9816 16.0425L26.6991 5.4242C24.6483 3.77587 21.3324 3.77587 19.3008 5.40504L6.01827 16.0425C4.52327 17.2309 3.56494 19.7417 3.89077 21.62L6.43994 36.8767C6.89994 39.5984 9.50661 41.8025 12.2666 41.8025H33.7333C36.4741 41.8025 39.0999 39.5792 39.5599 36.8767L42.1091 21.62C42.4158 19.7417 41.4574 17.2309 39.9816 16.0425ZM22.9999 29.7084C20.3549 29.7084 18.2083 27.5617 18.2083 24.9167C18.2083 22.2717 20.3549 20.125 22.9999 20.125C25.6449 20.125 27.7916 22.2717 27.7916 24.9167C27.7916 27.5617 25.6449 29.7084 22.9999 29.7084Z" fill="white"/>
</svg>
