<svg width="32" height="41" viewBox="0 0 32 41" fill="none" xmlns="http://www.w3.org/2000/svg">
<path d="M24.7273 39.5359C24.7273 39.9242 24.574 40.2966 24.3013 40.5712C24.0285 40.8457 23.6585 41 23.2728 41H8.72743C8.34167 41 7.9717 40.8457 7.69892 40.5712C7.42614 40.2966 7.2729 39.9242 7.2729 39.5359C7.2729 39.1476 7.42614 38.7752 7.69892 38.5006C7.9717 38.226 8.34167 38.0718 8.72743 38.0718H23.2728C23.6585 38.0718 24.0285 38.226 24.3013 38.5006C24.574 38.7752 24.7273 39.1476 24.7273 39.5359ZM31.9999 16.11C32.0062 18.5507 31.4584 20.9607 30.3984 23.1559C29.3384 25.3511 27.7942 27.2735 25.8836 28.7764C25.5264 29.0521 25.2365 29.4063 25.0361 29.812C24.8357 30.2177 24.73 30.6641 24.7273 31.1172V32.2153C24.7273 32.9919 24.4208 33.7367 23.8752 34.2859C23.3297 34.835 22.5898 35.1435 21.8182 35.1435H10.182C9.41043 35.1435 8.6705 34.835 8.12494 34.2859C7.57939 33.7367 7.2729 32.9919 7.2729 32.2153V31.1172C7.2726 30.6695 7.17034 30.2279 6.97398 29.8262C6.77761 29.4246 6.49237 29.0736 6.14018 28.8002C4.23438 27.3062 2.69121 25.3953 1.62746 23.2123C0.563707 21.0292 0.00726133 18.6312 0.000237906 16.1997C-0.0470344 7.47717 6.95654 0.213311 15.6146 0.00467454C17.748 -0.0470735 19.8701 0.33127 21.856 1.11744C23.8419 1.9036 25.6515 3.08171 27.1783 4.58241C28.705 6.08311 29.9182 7.87608 30.7462 9.85579C31.5743 11.8355 32.0006 13.962 31.9999 16.11ZM22.8473 16.5382C22.7122 16.4021 22.5518 16.2941 22.3752 16.2204C22.1986 16.1468 22.0094 16.1088 21.8182 16.1088C21.6271 16.1088 21.4378 16.1468 21.2612 16.2204C21.0846 16.2941 20.9242 16.4021 20.7891 16.5382L16.0001 21.3607L11.211 16.5382C10.9381 16.2635 10.5679 16.1092 10.182 16.1092C9.79598 16.1092 9.42581 16.2635 9.15288 16.5382C8.87995 16.813 8.72662 17.1856 8.72662 17.5741C8.72662 17.9626 8.87995 18.3352 9.15288 18.61L14.5456 24.0364V30.7512C14.5456 31.1395 14.6988 31.5119 14.9716 31.7865C15.2444 32.061 15.6143 32.2153 16.0001 32.2153C16.3859 32.2153 16.7558 32.061 17.0286 31.7865C17.3014 31.5119 17.4546 31.1395 17.4546 30.7512V24.0364L22.8473 18.61C22.9825 18.474 23.0898 18.3125 23.163 18.1348C23.2362 17.957 23.2739 17.7665 23.2739 17.5741C23.2739 17.3817 23.2362 17.1912 23.163 17.0134C23.0898 16.8357 22.9825 16.6742 22.8473 16.5382Z" fill="white"/>
</svg>
