<svg width="40" height="40" viewBox="0 0 40 40" fill="none" xmlns="http://www.w3.org/2000/svg">
<path d="M32.1252 4.625L30.5002 6.25C34.8752 9.25 37.6877 14.3125 37.6877 20C37.6877 25.6875 34.8127 30.6875 30.5002 33.6875L32.1252 35.3125C36.9377 31.875 40.0002 26.3125 40.0002 20C40.0002 13.6875 36.8752 8.0625 32.1252 4.625Z" fill="#42ADE2"/>
<path d="M32.8127 20C32.8127 24.3125 30.5002 28.125 27.0002 30.1875L28.6877 31.875C32.5627 29.375 35.1252 25 35.1252 20C35.1252 15 32.5627 10.625 28.6252 8.125L26.9377 9.8125C30.4377 11.875 32.8127 15.6875 32.8127 20Z" fill="#42ADE2"/>
<path d="M28.0001 20C28.0001 23 26.0626 25.625 23.3751 26.5625L25.1251 28.3125C28.1876 26.8125 30.3126 23.625 30.3126 20C30.3126 16.3125 28.1876 13.1875 25.1251 11.625L23.3751 13.375C26.0626 14.375 28.0001 16.9375 28.0001 20Z" fill="#42ADE2"/>
<path d="M6.9375 28.125H2.375C1.0625 28.125 0 27.125 0 25.9375V14.0625C0 12.8125 1.0625 11.875 2.375 11.875H6.9375V28.125Z" fill="#8B979E"/>
<path d="M6.9375 28.125H2.375C1.0625 28.125 0 27.125 0 25.9375V14.0625C0 12.8125 1.0625 11.875 2.375 11.875H6.9375V28.125Z" fill="#8B979E"/>
<path d="M18.6249 1.37489C19.4374 0.562392 6.93744 11.8749 6.93744 11.8749V28.1249C6.93744 28.1249 13.3749 33.0624 18.6249 38.6249V1.37489Z" fill="#B0BDC6"/>
<path d="M20.6251 15.9375V24.125C23.0626 24.125 25.0001 22.3125 25.0001 20.0625C25.0001 17.75 23.0626 15.9375 20.6251 15.9375ZM20.6251 39.0625C20.6251 39.5625 20.1876 40 19.6251 40C19.0626 40 18.6251 39.5625 18.6251 39.0625V0.9375C18.6251 0.4375 19.0626 0 19.6251 0C20.1876 0 20.6251 0.4375 20.6251 0.9375V39.0625Z" fill="#333333"/>
<path d="M6.9375 25.125H2.375C1.0625 25.125 0 24.5 0 23.75V16.25C0 15.5 1.0625 14.875 2.375 14.875H6.9375V25.125Z" fill="#8B979E"/>
<path d="M6.9375 25.125H2.375C1.0625 25.125 0 24.5 0 23.75V16.25C0 15.5 1.0625 14.875 2.375 14.875H6.9375V25.125Z" fill="#B0BDC6"/>
<path d="M18.6249 8.3125L6.93744 14.875V25.125L18.6249 31.6875V8.3125Z" fill="#DFE9EF"/>
<path d="M18.6251 8.3125H20.6251V31.75H18.6251V8.3125Z" fill="#8B979E"/>
<path d="M2.37512 11.875H6.93762V28.125H2.37512V11.875Z" fill="#333333"/>
</svg>
