<svg width="37" height="37" viewBox="0 0 37 37" fill="none" xmlns="http://www.w3.org/2000/svg">
<path d="M0.000185013 8.55106V28.2033C0.000185013 30.2621 1.32164 32.321 3.39808 33.0695L12.837 36.6257C13.4032 36.8128 13.9695 37 14.7247 37C15.6686 37 16.8011 36.6257 17.745 36.0643C18.1226 35.6898 18.6889 35.3156 18.8778 34.9411H26.0512C28.8828 34.9411 31.3369 32.6952 31.3369 29.7006V27.829C31.3369 27.0803 30.7706 26.3316 29.8267 26.3316C28.8828 26.3316 28.3165 26.8931 28.3165 27.829V29.7006C28.3165 31.0108 27.1839 31.9465 26.0512 31.9465H19.8216V4.99495H26.0512C27.3726 4.99495 28.3165 5.93077 28.3165 7.24093V9.11255C28.3165 9.86121 28.8828 10.6099 29.8267 10.6099C30.7706 10.6099 31.3369 9.86121 31.3369 9.11255V7.24093C31.3369 4.43346 29.0716 2.00032 26.0512 2.00032H18.8778C18.5002 1.62599 18.1226 1.25166 17.745 0.877333C16.2349 -0.058489 14.5358 -0.245653 12.837 0.31584L3.39808 3.87196C1.51034 4.43346 0.000185013 6.49227 0.000185013 8.55106Z" fill="#EFF7FF"/>
<path d="M31.7143 23.7114C32.0918 23.7114 32.4694 23.5244 32.6582 23.3372L36.4337 19.5939C36.6225 19.4067 36.6225 19.2196 36.8112 19.2196C36.8112 19.0324 37 18.8452 37 18.6581C37 18.4709 37 18.2837 36.8112 18.0967C36.8112 17.9095 36.6225 17.7222 36.4337 17.7222L32.6582 13.979C32.0918 13.4175 31.148 13.4175 30.5816 13.979C30.0153 14.5405 30.0153 15.4763 30.5816 16.0378L31.9031 17.348H24.1633C23.4082 17.348 22.6531 17.9095 22.6531 18.8452C22.6531 19.7811 23.4082 19.9683 24.1633 19.9683H32.0918L30.7704 21.2783C30.2041 21.8398 30.2041 22.7757 30.7704 23.3372C30.9592 23.5244 31.3367 23.7114 31.7143 23.7114Z" fill="#EFF7FF"/>
</svg>
