<svg width="34" height="54" viewBox="0 0 34 54" fill="none" xmlns="http://www.w3.org/2000/svg">
<path d="M16.6695 54.003C18.5382 54.003 20.0531 52.4881 20.0531 50.6194C20.0531 48.7507 18.5382 47.2358 16.6695 47.2358C14.8008 47.2358 13.2859 48.7507 13.2859 50.6194C13.2859 52.4881 14.8008 54.003 16.6695 54.003Z" fill="url(#paint0_radial_320_782)"/>
<path d="M20.8263 39.3059H12.658C11.3408 39.3059 10.2731 40.3737 10.2731 41.6908V49.7398C10.2731 51.057 11.3408 52.1247 12.658 52.1247H20.8263C22.1434 52.1247 23.2112 51.057 23.2112 49.7398V41.6908C23.2112 40.3737 22.1434 39.3059 20.8263 39.3059Z" fill="url(#paint1_linear_320_782)"/>
<path d="M20.8263 39.3059H12.658C11.3408 39.3059 10.2731 40.3737 10.2731 41.6908V49.7398C10.2731 51.057 11.3408 52.1247 12.658 52.1247H20.8263C22.1434 52.1247 23.2112 51.057 23.2112 49.7398V41.6908C23.2112 40.3737 22.1434 39.3059 20.8263 39.3059Z" fill="url(#paint2_linear_320_782)"/>
<path d="M20.8263 39.3059H12.658C11.3408 39.3059 10.2731 40.3737 10.2731 41.6908V49.7398C10.2731 51.057 11.3408 52.1247 12.658 52.1247H20.8263C22.1434 52.1247 23.2112 51.057 23.2112 49.7398V41.6908C23.2112 40.3737 22.1434 39.3059 20.8263 39.3059Z" fill="url(#paint3_radial_320_782)"/>
<path d="M20.8263 39.3059H12.658C11.3408 39.3059 10.2731 40.3737 10.2731 41.6908V49.7398C10.2731 51.057 11.3408 52.1247 12.658 52.1247H20.8263C22.1434 52.1247 23.2112 51.057 23.2112 49.7398V41.6908C23.2112 40.3737 22.1434 39.3059 20.8263 39.3059Z" fill="url(#paint4_linear_320_782)"/>
<path d="M16.477 40.8262C16.5131 40.8262 16.5476 40.8264 16.5802 40.8264C17.6395 40.8216 20.0794 40.7806 21.0574 40.6027C22.1067 40.412 22.2422 39.8888 22.4286 39.0674C23.5779 34.005 25.5051 32.0587 26.7943 30.7566C26.9931 30.5558 27.1768 30.3704 27.34 30.1911C27.8996 29.5771 28.384 29.0364 28.7537 28.6189C31.537 25.6651 33.2427 21.6846 33.2427 17.3057C33.2427 8.19271 25.855 0.805176 16.742 0.805176C7.62923 0.805176 0.241577 8.19271 0.241577 17.3057C0.241577 21.6312 1.90595 25.568 4.62921 28.5106C5.0094 28.9406 5.52956 29.5225 6.13895 30.1911C6.24484 30.3074 6.3595 30.4265 6.48123 30.5505C6.54705 30.6175 6.61478 30.6862 6.68461 30.7566C7.9738 32.0587 9.90099 34.005 11.0503 39.0674C11.2369 39.8888 11.3724 40.412 12.4217 40.6027C13.3974 40.7802 15.3723 40.8208 16.3717 40.8258C16.4043 40.8258 16.4396 40.8262 16.477 40.8262Z" fill="url(#paint5_radial_320_782)"/>
<path d="M16.477 40.8262C16.5131 40.8262 16.5476 40.8264 16.5802 40.8264C17.6395 40.8216 20.0794 40.7806 21.0574 40.6027C22.1067 40.412 22.2422 39.8888 22.4286 39.0674C23.5779 34.005 25.5051 32.0587 26.7943 30.7566C26.9931 30.5558 27.1768 30.3704 27.34 30.1911C27.8996 29.5771 28.384 29.0364 28.7537 28.6189C31.537 25.6651 33.2427 21.6846 33.2427 17.3057C33.2427 8.19271 25.855 0.805176 16.742 0.805176C7.62923 0.805176 0.241577 8.19271 0.241577 17.3057C0.241577 21.6312 1.90595 25.568 4.62921 28.5106C5.0094 28.9406 5.52956 29.5225 6.13895 30.1911C6.24484 30.3074 6.3595 30.4265 6.48123 30.5505C6.54705 30.6175 6.61478 30.6862 6.68461 30.7566C7.9738 32.0587 9.90099 34.005 11.0503 39.0674C11.2369 39.8888 11.3724 40.412 12.4217 40.6027C13.3974 40.7802 15.3723 40.8208 16.3717 40.8258C16.4043 40.8258 16.4396 40.8262 16.477 40.8262Z" fill="url(#paint6_radial_320_782)"/>
<path d="M19.7106 16.6196C23.2175 16.6196 26.0604 13.7767 26.0604 10.2698C26.0604 6.76294 23.2175 3.92004 19.7106 3.92004C16.2037 3.92004 13.3608 6.76294 13.3608 10.2698C13.3608 13.7767 16.2037 16.6196 19.7106 16.6196Z" fill="url(#paint7_linear_320_782)"/>
<path d="M15.9269 40.8214C15.8599 36.6772 15.5297 33.9482 15.0269 32.0486C14.4475 29.8591 13.637 28.768 12.7794 27.9027L12.7687 27.8919L12.7575 27.8814C11.6591 26.8421 10.9759 25.3738 10.9759 23.7442C10.9759 20.5996 13.5252 18.0503 16.6699 18.0503C19.8145 18.0503 22.3639 20.5996 22.3639 23.7442C22.3639 25.3738 21.6804 26.8421 20.5822 27.8814L20.571 27.8919L20.5601 27.9027C19.7182 28.7525 18.8966 29.7719 18.3103 31.9433C17.8028 33.8219 17.4708 36.5605 17.4048 40.8174C17.9802 40.8081 18.6684 40.7905 19.3141 40.7592C19.3822 36.6231 19.7069 34.0895 20.1522 32.4407C20.6345 30.6543 21.2548 29.9135 21.905 29.2562C23.3615 27.8724 24.2718 25.9137 24.2718 23.7442C24.2718 19.5459 20.8682 16.1423 16.6699 16.1423C12.4715 16.1423 9.06793 19.5459 9.06793 23.7442C9.06793 25.9137 9.97801 27.8722 11.4345 29.256C12.0699 29.8988 12.6968 30.7017 13.1826 32.5367C13.6263 34.2132 13.9484 36.7419 14.0177 40.7604C14.6784 40.7968 15.3751 40.8142 15.9269 40.8214Z" fill="#FFAD55"/>
<path d="M18.5979 40.387C18.5979 31.2841 19.9928 29.8322 21.489 28.3224C22.7698 27.1107 23.569 25.3949 23.569 23.4926C23.569 19.821 20.5926 16.8446 16.921 16.8446C13.2494 16.8446 10.2731 19.821 10.2731 23.4926C10.2731 25.3949 11.0723 27.1107 12.3531 28.3224C13.8493 29.8322 15.2367 32.4455 15.2367 40.387" stroke="url(#paint8_linear_320_782)" stroke-width="0.166556"/>
<path d="M21.9392 43.0824L11.1183 44.7779C10.5611 44.8651 10.1803 45.3876 10.2676 45.9447C10.3549 46.5018 10.8773 46.8827 11.4344 46.7954L22.2554 45.0999C22.8125 45.0127 23.1934 44.4902 23.1061 43.9331C23.0188 43.376 22.4964 42.9951 21.9392 43.0824Z" fill="#7E6693"/>
<path d="M21.9392 47.6064L11.1183 49.3019C10.5611 49.3892 10.1803 49.9116 10.2676 50.4687C10.3549 51.0259 10.8773 51.4068 11.4344 51.3195L22.2554 49.624C22.8125 49.5367 23.1934 49.0143 23.1061 48.4572C23.0188 47.9 22.4964 47.5191 21.9392 47.6064Z" fill="#7E6693"/>
<path d="M23.3323 47.1062L9.72598 49.2381C9.15248 49.3279 8.76041 49.8657 8.85027 50.4392L8.85027 50.4392C8.94013 51.0127 9.47789 51.4048 10.0514 51.3149L23.6577 49.183C24.2312 49.0932 24.6233 48.5554 24.5334 47.9819L24.5334 47.9819C24.4436 47.4084 23.9058 47.0163 23.3323 47.1062Z" fill="url(#paint9_linear_320_782)"/>
<path d="M23.3323 47.1062L9.72598 49.2381C9.15248 49.3279 8.76041 49.8657 8.85027 50.4392L8.85027 50.4392C8.94013 51.0127 9.47789 51.4048 10.0514 51.3149L23.6577 49.183C24.2312 49.0932 24.6233 48.5554 24.5334 47.9819L24.5334 47.9819C24.4436 47.4084 23.9058 47.0163 23.3323 47.1062Z" fill="url(#paint10_linear_320_782)"/>
<path d="M23.3323 47.1062L9.72598 49.2381C9.15248 49.3279 8.76041 49.8657 8.85027 50.4392L8.85027 50.4392C8.94013 51.0127 9.47789 51.4048 10.0514 51.3149L23.6577 49.183C24.2312 49.0932 24.6233 48.5554 24.5334 47.9819L24.5334 47.9819C24.4436 47.4084 23.9058 47.0163 23.3323 47.1062Z" fill="url(#paint11_linear_320_782)"/>
<path d="M23.3323 47.1062L9.72598 49.2381C9.15248 49.3279 8.76041 49.8657 8.85027 50.4392L8.85027 50.4392C8.94013 51.0127 9.47789 51.4048 10.0514 51.3149L23.6577 49.183C24.2312 49.0932 24.6233 48.5554 24.5334 47.9819L24.5334 47.9819C24.4436 47.4084 23.9058 47.0163 23.3323 47.1062Z" fill="url(#paint12_radial_320_782)"/>
<path d="M23.3323 42.5719L9.72598 44.7038C9.15248 44.7936 8.76041 45.3314 8.85027 45.9049L8.85027 45.9049C8.94013 46.4784 9.47789 46.8705 10.0514 46.7806L23.6577 44.6487C24.2312 44.5589 24.6233 44.0211 24.5334 43.4476L24.5334 43.4476C24.4436 42.8741 23.9058 42.482 23.3323 42.5719Z" fill="url(#paint13_linear_320_782)"/>
<path d="M23.3323 42.5719L9.72598 44.7038C9.15248 44.7936 8.76041 45.3314 8.85027 45.9049L8.85027 45.9049C8.94013 46.4784 9.47789 46.8705 10.0514 46.7806L23.6577 44.6487C24.2312 44.5589 24.6233 44.0211 24.5334 43.4476L24.5334 43.4476C24.4436 42.8741 23.9058 42.482 23.3323 42.5719Z" fill="url(#paint14_linear_320_782)"/>
<path d="M23.3323 42.5719L9.72598 44.7038C9.15248 44.7936 8.76041 45.3314 8.85027 45.9049L8.85027 45.9049C8.94013 46.4784 9.47789 46.8705 10.0514 46.7806L23.6577 44.6487C24.2312 44.5589 24.6233 44.0211 24.5334 43.4476L24.5334 43.4476C24.4436 42.8741 23.9058 42.482 23.3323 42.5719Z" fill="url(#paint15_linear_320_782)"/>
<path d="M23.3323 42.5719L9.72598 44.7038C9.15248 44.7936 8.76041 45.3314 8.85027 45.9049L8.85027 45.9049C8.94013 46.4784 9.47789 46.8705 10.0514 46.7806L23.6577 44.6487C24.2312 44.5589 24.6233 44.0211 24.5334 43.4476L24.5334 43.4476C24.4436 42.8741 23.9058 42.482 23.3323 42.5719Z" fill="url(#paint16_radial_320_782)"/>
<defs>
<radialGradient id="paint0_radial_320_782" cx="0" cy="0" r="1" gradientUnits="userSpaceOnUse" gradientTransform="translate(17.5637 52.5422) rotate(96.6544) scale(1.80081 4.17099)">
<stop offset="0.267752" stop-color="#AC90C6"/>
<stop offset="1" stop-color="#8E6AAA"/>
</radialGradient>
<linearGradient id="paint1_linear_320_782" x1="23.2113" y1="46.2309" x2="10.2731" y2="46.2309" gradientUnits="userSpaceOnUse">
<stop stop-color="#CDC2D1"/>
<stop offset="1" stop-color="#947C8D"/>
</linearGradient>
<linearGradient id="paint2_linear_320_782" x1="9.6343" y1="47.2058" x2="12.7944" y2="47.2058" gradientUnits="userSpaceOnUse">
<stop stop-color="#8A7B88"/>
<stop offset="1" stop-color="#8A7B88" stop-opacity="0"/>
</linearGradient>
<radialGradient id="paint3_radial_320_782" cx="0" cy="0" r="1" gradientUnits="userSpaceOnUse" gradientTransform="translate(19.4101 40.1998) rotate(88.6361) scale(1.57378 7.00669)">
<stop offset="0.228769" stop-color="#EDE2EB"/>
<stop offset="1" stop-color="#C8BCCB" stop-opacity="0"/>
</radialGradient>
<linearGradient id="paint4_linear_320_782" x1="19.7106" y1="52.1246" x2="19.7106" y2="49.71" gradientUnits="userSpaceOnUse">
<stop stop-color="#7E5F9E"/>
<stop offset="1" stop-color="#7E5F9E" stop-opacity="0"/>
</linearGradient>
<radialGradient id="paint5_radial_320_782" cx="0" cy="0" r="1" gradientUnits="userSpaceOnUse" gradientTransform="translate(23.7052 12.5056) rotate(138.066) scale(18.9145 15.5967)">
<stop offset="0.286168" stop-color="#FFEC87"/>
<stop offset="1" stop-color="#FFCD4B"/>
</radialGradient>
<radialGradient id="paint6_radial_320_782" cx="0" cy="0" r="1" gradientUnits="userSpaceOnUse" gradientTransform="translate(25.4939 22.6414) rotate(-147.604) scale(27.8211 26.7601)">
<stop offset="0.622387" stop-color="#FFB239" stop-opacity="0"/>
<stop offset="1" stop-color="#FFB239"/>
</radialGradient>
<linearGradient id="paint7_linear_320_782" x1="17.4899" y1="12.3195" x2="24.0179" y2="7.23274" gradientUnits="userSpaceOnUse">
<stop stop-color="white" stop-opacity="0"/>
<stop offset="0.594121" stop-color="white"/>
</linearGradient>
<linearGradient id="paint8_linear_320_782" x1="24.0177" y1="17.9857" x2="16.376" y2="36.1915" gradientUnits="userSpaceOnUse">
<stop stop-color="#FFBF5C"/>
<stop offset="1" stop-color="#FFBF5C" stop-opacity="0"/>
</linearGradient>
<linearGradient id="paint9_linear_320_782" x1="16.342" y1="48.2194" x2="16.8488" y2="50.485" gradientUnits="userSpaceOnUse">
<stop stop-color="#B1969A"/>
<stop offset="1" stop-color="#DAD2E2"/>
</linearGradient>
<linearGradient id="paint10_linear_320_782" x1="18.4885" y1="49.9485" x2="18.2499" y2="48.4579" gradientUnits="userSpaceOnUse">
<stop stop-color="#8A68A9"/>
<stop offset="1" stop-color="#DEC2E3" stop-opacity="0"/>
</linearGradient>
<linearGradient id="paint11_linear_320_782" x1="8.68746" y1="50.6043" x2="13.8975" y2="49.5012" gradientUnits="userSpaceOnUse">
<stop stop-color="#958387"/>
<stop offset="1" stop-color="#958387" stop-opacity="0"/>
</linearGradient>
<radialGradient id="paint12_radial_320_782" cx="0" cy="0" r="1" gradientUnits="userSpaceOnUse" gradientTransform="translate(21.7975 48.0732) rotate(81.4163) scale(1.59789 9.45778)">
<stop offset="0.126697" stop-color="#FCF0FC"/>
<stop offset="1" stop-color="#E5C9E3" stop-opacity="0"/>
</radialGradient>
<linearGradient id="paint13_linear_320_782" x1="16.342" y1="43.6851" x2="16.8488" y2="45.9507" gradientUnits="userSpaceOnUse">
<stop stop-color="#B1969A"/>
<stop offset="1" stop-color="#DAD2E2"/>
</linearGradient>
<linearGradient id="paint14_linear_320_782" x1="18.4885" y1="45.4142" x2="18.2499" y2="43.9236" gradientUnits="userSpaceOnUse">
<stop stop-color="#8A68A9"/>
<stop offset="1" stop-color="#DEC2E3" stop-opacity="0"/>
</linearGradient>
<linearGradient id="paint15_linear_320_782" x1="8.68746" y1="46.07" x2="13.8975" y2="44.9669" gradientUnits="userSpaceOnUse">
<stop stop-color="#958387"/>
<stop offset="1" stop-color="#958387" stop-opacity="0"/>
</linearGradient>
<radialGradient id="paint16_radial_320_782" cx="0" cy="0" r="1" gradientUnits="userSpaceOnUse" gradientTransform="translate(21.7975 43.5389) rotate(81.4163) scale(1.59789 9.45778)">
<stop offset="0.126697" stop-color="#FCF0FC"/>
<stop offset="1" stop-color="#E5C9E3" stop-opacity="0"/>
</radialGradient>
</defs>
</svg>
