<svg width="38" height="38" viewBox="0 0 38 38" fill="none" xmlns="http://www.w3.org/2000/svg">
<path d="M30.5355 4.38452L28.9661 5.95329C33.0986 8.82102 35.8105 13.5989 35.8105 18.9987C35.8105 24.389 33.1081 29.1586 28.9889 32.0276L30.5583 33.597C35.0644 30.31 37.9999 24.9907 37.9999 18.9987C37.9999 12.9972 35.0549 7.66962 30.5355 4.38452Z" fill="#EFF7FF"/>
<path d="M33.3482 18.9987C33.3482 14.2766 30.8934 10.1168 27.1916 7.72791L25.5994 9.32011C28.9225 11.2695 31.1581 14.877 31.1581 18.9987C31.1581 23.1109 28.9339 26.7121 25.626 28.6634L27.2156 30.2549C30.9042 27.8635 33.3482 23.7113 33.3482 18.9987Z" fill="#EFF7FF"/>
<path d="M28.792 18.9987C28.792 15.5242 26.778 12.5102 23.8558 11.063L22.1914 12.7299C24.7615 13.654 26.6038 16.1151 26.6038 18.9987C26.6038 21.8721 24.776 24.3263 22.2218 25.2598L23.8837 26.9217C26.7907 25.4688 28.792 22.4643 28.792 18.9987Z" fill="#EFF7FF"/>
<path d="M23.75 19C23.75 16.8524 21.8893 15.1126 19.5947 15.1126V0.879067C19.5947 0.3933 19.1735 0 18.6542 0C18.1361 0 17.715 0.3933 17.715 0.879067V1.3205C17.0291 1.8772 6.6063 11.2816 6.6063 11.2816H2.24517C1.0051 11.2816 0 12.2208 0 13.3811V24.617C0 25.7779 1.0051 26.7172 2.24517 26.7172H6.60693V26.7184C6.60693 26.7184 12.7066 31.3823 17.7156 36.6649V37.1197C17.7156 37.6054 18.1368 38 18.6548 38C19.1742 38 19.5953 37.6054 19.5953 37.1197V22.8861C21.8899 22.8861 23.75 21.1457 23.75 19Z" fill="#EFF7FF"/>
</svg>
