<svg width="38" height="40" viewBox="0 0 38 40" fill="none" xmlns="http://www.w3.org/2000/svg">
<path d="M19 0C8.55 0 0 9 0 20C0 31 8.55 40 19 40C29.45 40 38 31 38 20C38 9 29.45 0 19 0ZM29.45 28.6667C29.1333 29 29.1334 29 28.8167 29C28.5 29 28.5 29 28.1833 28.6667L20.5833 22.3333C19.95 22.6667 19.6333 23 18.6833 23C17.1 23 15.5167 21.6667 15.5167 19.6667C15.5167 18.3333 16.4667 17 17.7334 16.6667V4.33333C17.7334 4 18.05 3.33333 18.6833 3.33333C19 3.33333 19.6333 3.66667 19.6333 4.33333V16.6667C20.9 17 21.85 18.3333 21.85 19.6667C21.85 20 21.85 20.6667 21.5333 21L29.1333 27.3333C29.7667 28 29.7667 28.3333 29.45 28.6667Z" fill="#EFF7FF"/>
</svg>
